<?xml version="1.0" encoding="UTF-8"?>
<svg id="Layer_1" data-name="Layer 1" xmlns="http://www.w3.org/2000/svg" xmlns:xlink="http://www.w3.org/1999/xlink" viewBox="0 0 178 85.26">
  <defs>
    <style>
      .cls-1 {
        fill: none;
      }

      .cls-2 {
        clip-path: url(#clippath);
      }

      .cls-3 {
        fill: #1a403d;
      }
    </style>
    <clipPath id="clippath">
      <rect class="cls-1" x="22.45" y="15.68" width="133.1" height="53.91"/>
    </clipPath>
  </defs>
  <g class="cls-2">
    <path class="cls-3" d="m47.06,42.41v26.92h.59l-.02-4.95s1.12.5,2.25,2.13c1.43,2.06,1.38,3.09,1.38,3.09h1.19s.32-1.47-1.87-4.23c-1.49-1.88-2.78-2.71-2.78-2.71l-.14-4.87,4.67,4.87s3.24,3.34,3.65,5.32c.42,1.98.32,1.59.32,1.59l1.08-.12s.17-2.7-2.72-6.15c-2.89-3.45-5.88-6.27-6.36-7.01-.5-.76-.68-4.94-.68-4.94,0,0,.74,1.12,1.76,2.25,1.02,1.13,6.93,6.79,6.91,6.96-.02.17,3.4,3.91,3.9,6.28l.51,2.38,1.06-.11s-.88-4.98-3.37-7.87c-2.5-2.89-7.12-7.42-7.12-7.42,0,0-2.89-3.18-3.21-4.33-.32-1.15-.49-7.08-.49-7.08h-.5Z"/>
    <path class="cls-3" d="m47.18,42.41v26.92h-.59l.02-4.95s-1.11.5-2.23,2.13c-1.42,2.06-1.37,3.09-1.37,3.09h-1.18s-.31-1.47,1.86-4.23c1.48-1.88,2.76-2.71,2.76-2.71l.14-4.87-4.63,4.87s-3.21,3.34-3.62,5.32c-.41,1.98-.31,1.59-.31,1.59l-1.07-.12s-.17-2.7,2.7-6.15c2.86-3.45,5.83-6.27,6.31-7.01.5-.76.67-4.94.67-4.94,0,0-.73,1.12-1.74,2.25-1.01,1.13-6.88,6.79-6.86,6.96.02.17-3.37,3.91-3.87,6.28l-.5,2.38-1.06-.11s.87-4.98,3.35-7.87c2.48-2.89,7.06-7.42,7.06-7.42,0,0,2.87-3.18,3.19-4.33.32-1.15.55-7.08.55-7.08h.43Z"/>
    <path class="cls-3" d="m48.39,38.05l3.64-4.03s.3,2.25-.75,3.62c-1.05,1.36-2.89.42-2.89.42"/>
    <path class="cls-3" d="m48.62,38.25l3.38-4.24s-2.33.14-3.51,1.39c-1.18,1.26.12,2.85.12,2.85"/>
    <path class="cls-3" d="m46.66,33.91l.48-7.56s2.28,2.2,2.32,4.6c.04,2.39-2.8,2.96-2.8,2.96"/>
    <path class="cls-3" d="m47.08,33.94l.02-7.56s-2.43,2.17-2.62,4.56c-.2,2.39,2.6,3,2.6,3"/>
    <path class="cls-3" d="m50.44,33.06l3.48-5.58s.83,2.62-.12,4.47c-.96,1.84-3.36,1.11-3.36,1.11"/>
    <path class="cls-3" d="m50.75,33.25l3.14-5.77s-2.75.66-3.89,2.4c-1.14,1.74.75,3.36.75,3.36"/>
    <path class="cls-3" d="m52.7,38.18l5.1-3.97s-.36,2.62-1.88,4c-1.52,1.37-3.21-.03-3.21-.03"/>
    <path class="cls-3" d="m52.88,38.45l4.88-4.25s-2.53-.25-4.16.98c-1.63,1.23-.72,3.27-.72,3.27"/>
    <path class="cls-3" d="m48.23,42.87l5.18-3.85s-.41,2.61-1.97,3.95c-1.55,1.34-3.21-.1-3.21-.1"/>
    <path class="cls-3" d="m48.4,43.14l4.98-4.14s-2.52-.3-4.18.89c-1.66,1.19-.79,3.25-.79,3.25"/>
    <path class="cls-3" d="m53.29,42.14l6.42-.66s-1.7,2.03-3.72,2.39c-2.02.35-2.71-1.73-2.71-1.73"/>
    <path class="cls-3" d="m53.3,42.46l6.39-1.01s-2.01-1.55-4.05-1.38c-2.04.17-2.35,2.39-2.35,2.39"/>
    <path class="cls-3" d="m48.56,44.82l6.03,2.33s-2.47,1.23-4.44.65c-1.97-.59-1.59-2.97-1.59-2.97"/>
    <path class="cls-3" d="m48.42,45.14l6.17,1.97s-1.05-2.47-2.95-3.25c-1.9-.77-3.22,1.28-3.22,1.28"/>
    <path class="cls-3" d="m54.68,32.74l3.17-2.81s-.12,1.73-1.07,2.7c-.94.96-2.11.11-2.11.11"/>
    <path class="cls-3" d="m54.81,32.91l3.02-2.99s-1.67-.06-2.69.82c-1.02.87-.34,2.17-.34,2.17"/>
    <path class="cls-3" d="m58.09,38.81l5.02-1.22s-1.12,1.8-2.68,2.3c-1.56.5-2.33-1.07-2.33-1.07"/>
    <path class="cls-3" d="m58.14,39.06l4.95-1.5s-1.76-1.01-3.36-.65c-1.6.36-1.6,2.15-1.6,2.15"/>
    <path class="cls-3" d="m54.77,45.39l5.3,2.92s-.56-2.46-2.16-3.51c-1.6-1.05-3.14.59-3.14.59"/>
    <path class="cls-3" d="m54.93,45.1l5.12,3.22s-2.46.68-4.15-.21c-1.7-.89-.96-3.01-.96-3.01"/>
    <path class="cls-3" d="m49.95,48.8l4.55,3.9s.09-2.66-1.24-4.02c-1.33-1.36-3.31.11-3.31.11"/>
    <path class="cls-3" d="m50.18,48.53l4.28,4.2s-2.64.32-4.11-.89c-1.47-1.21-.17-3.31-.17-3.31"/>
    <path class="cls-3" d="m58.05,35.87l2.69-2.1s-.19,1.39-.99,2.11c-.8.73-1.7-.01-1.7-.01"/>
    <path class="cls-3" d="m58.14,36.01l2.58-2.25s-1.34-.13-2.2.52c-.86.65-.38,1.73-.38,1.73"/>
    <path class="cls-3" d="m45.89,19.77c0,2.26-1.83,4.1-4.1,4.1s-4.1-1.83-4.1-4.1,1.83-4.1,4.1-4.1,4.1,1.84,4.1,4.1"/>
    <path class="cls-3" d="m55.28,20.07c0,2.02-1.64,3.66-3.67,3.66s-3.66-1.64-3.66-3.66,1.64-3.66,3.66-3.66,3.67,1.64,3.67,3.66"/>
    <path class="cls-3" d="m45.42,38.23l-3.64-4.03s-.3,2.25.75,3.62c1.05,1.36,2.89.42,2.89.42"/>
    <path class="cls-3" d="m45.2,38.42l-3.38-4.24s2.33.14,3.51,1.39c1.18,1.26-.12,2.85-.12,2.85"/>
    <path class="cls-3" d="m43.38,33.23l-3.48-5.58s-.83,2.62.12,4.47c.96,1.84,3.36,1.11,3.36,1.11"/>
    <path class="cls-3" d="m43.07,33.42l-3.14-5.77s2.75.66,3.89,2.4c1.14,1.74-.75,3.36-.75,3.36"/>
    <path class="cls-3" d="m41.12,38.35l-5.1-3.97s.36,2.62,1.88,4c1.52,1.37,3.21-.03,3.21-.03"/>
    <path class="cls-3" d="m40.94,38.62l-4.88-4.25s2.53-.25,4.16.98c1.63,1.23.72,3.27.72,3.27"/>
    <path class="cls-3" d="m45.58,43.05l-5.18-3.85s.41,2.61,1.97,3.95c1.55,1.34,3.21-.1,3.21-.1"/>
    <path class="cls-3" d="m45.41,43.31l-4.98-4.14s2.52-.3,4.18.89c1.66,1.19.79,3.25.79,3.25"/>
    <path class="cls-3" d="m40.52,42.31l-6.42-.66s1.7,2.03,3.72,2.39c2.02.35,2.71-1.73,2.71-1.73"/>
    <path class="cls-3" d="m40.51,42.63l-6.39-1.01s2.01-1.55,4.05-1.38c2.04.17,2.35,2.39,2.35,2.39"/>
    <path class="cls-3" d="m45.25,44.99l-6.03,2.33s2.47,1.23,4.44.65c1.97-.59,1.59-2.97,1.59-2.97"/>
    <path class="cls-3" d="m45.39,45.31l-6.17,1.97s1.05-2.47,2.95-3.25c1.9-.77,3.22,1.28,3.22,1.28"/>
    <path class="cls-3" d="m39.13,32.91l-3.17-2.81s.12,1.73,1.07,2.7c.94.96,2.11.11,2.11.11"/>
    <path class="cls-3" d="m39.01,33.08l-3.02-2.99s1.67-.06,2.69.82c1.02.87.34,2.17.34,2.17"/>
    <path class="cls-3" d="m35.72,39.36l-5.02-1.22s1.12,1.8,2.68,2.3c1.56.5,2.33-1.07,2.33-1.07"/>
    <path class="cls-3" d="m35.68,39.61l-4.95-1.5s1.76-1.01,3.36-.65c1.6.36,1.6,2.15,1.6,2.15"/>
    <path class="cls-3" d="m39.04,45.56l-5.3,2.92s.56-2.46,2.16-3.51c1.6-1.05,3.14.59,3.14.59"/>
    <path class="cls-3" d="m38.89,45.27l-5.12,3.22s2.46.68,4.15-.21c1.7-.89.96-3.01.96-3.01"/>
    <path class="cls-3" d="m43.87,48.97l-4.55,3.9s-.09-2.66,1.24-4.02c1.33-1.36,3.31.11,3.31.11"/>
    <path class="cls-3" d="m43.64,48.7l-4.28,4.2s2.64.32,4.11-.89c1.47-1.21.17-3.31.17-3.31"/>
    <path class="cls-3" d="m35.77,36.04l-2.69-2.1s.19,1.39.99,2.11c.8.73,1.7-.01,1.7-.01"/>
    <path class="cls-3" d="m35.67,36.18l-2.58-2.25s1.34-.13,2.2.52c.86.65.38,1.73.38,1.73"/>
    <path class="cls-3" d="m30.89,29.81c1.35,1.82.98,4.38-.84,5.73-1.82,1.35-4.38.98-5.74-.84-1.35-1.82-.98-4.38.84-5.73,1.81-1.35,4.38-.98,5.73.84"/>
    <path class="cls-3" d="m36.07,22.54c1.21,1.62.87,3.92-.75,5.13-1.62,1.21-3.92.87-5.13-.75-1.21-1.62-.88-3.92.75-5.13,1.62-1.21,3.92-.87,5.13.75"/>
    <path class="cls-3" d="m27.01,45.3c2.11-.83,4.49.2,5.32,2.31.83,2.11-.21,4.49-2.31,5.32-2.11.83-4.49-.2-5.32-2.31-.83-2.11.2-4.49,2.31-5.32"/>
    <path class="cls-3" d="m24.77,37.33c1.88-.74,4.01.18,4.75,2.07.74,1.88-.18,4.01-2.07,4.75-1.88.74-4.01-.18-4.75-2.07-.74-1.88.18-4.01,2.07-4.75"/>
    <path class="cls-3" d="m62.82,27.44c-1.97,1.12-4.47.43-5.59-1.54-1.12-1.97-.43-4.47,1.54-5.59,1.97-1.12,4.47-.43,5.59,1.54,1.12,1.97.43,4.47-1.54,5.59"/>
    <path class="cls-3" d="m67.5,35.44c-1.76,1-4,.38-5-1.38-1-1.76-.38-4,1.38-5,1.76-1,4-.38,5,1.38,1,1.76.38,4-1.38,5"/>
    <path class="cls-3" d="m66.52,44.94c-2.07-.93-2.99-3.35-2.06-5.42.93-2.07,3.35-2.99,5.42-2.06s2.99,3.35,2.06,5.42c-.93,2.07-3.35,2.99-5.42,2.06"/>
    <path class="cls-3" d="m63.03,52.95c-1.85-.83-2.67-3-1.84-4.84.83-1.85,3-2.67,4.85-1.84,1.85.83,2.67,3,1.84,4.84-.83,1.85-3,2.67-4.84,1.84"/>
    <path class="cls-3" d="m60.66,54.41c0,1.39-1.13,2.52-2.52,2.52s-2.52-1.13-2.52-2.52,1.13-2.52,2.52-2.52,2.52,1.13,2.52,2.52"/>
    <path class="cls-3" d="m37.64,54.72c0,1.39-1.13,2.52-2.52,2.52s-2.52-1.13-2.52-2.52,1.13-2.52,2.52-2.52,2.52,1.13,2.52,2.52"/>
    <path class="cls-3" d="m76.37,30.23c0-3,2.28-4.91,5.05-4.91,1.98,0,3.22,1,3.93,2.12l-1.68.91c-.43-.67-1.24-1.24-2.25-1.24-1.72,0-2.97,1.32-2.97,3.12s1.25,3.12,2.97,3.12c.84,0,1.64-.37,2.02-.73v-1.14h-2.51v-1.76h4.53v3.64c-.97,1.08-2.32,1.79-4.04,1.79-2.77,0-5.05-1.93-5.05-4.92"/>
    <polygon class="cls-3" points="87.07 34.97 87.07 25.48 89.09 25.48 89.09 33.19 93.1 33.19 93.1 34.97 87.07 34.97"/>
    <path class="cls-3" d="m93.67,30.23c0-2.86,2.09-4.91,4.95-4.91s4.97,2.05,4.97,4.91-2.09,4.91-4.97,4.91-4.95-2.05-4.95-4.91m7.84,0c0-1.78-1.14-3.12-2.89-3.12s-2.88,1.34-2.88,3.12,1.12,3.12,2.88,3.12,2.89-1.35,2.89-3.12"/>
    <path class="cls-3" d="m105.01,34.97v-9.49h4.99c1.81,0,2.73,1.15,2.73,2.42,0,1.2-.74,1.99-1.64,2.18,1.01.16,1.82,1.14,1.82,2.33,0,1.42-.95,2.56-2.76,2.56h-5.15Zm5.66-6.72c0-.6-.43-1.04-1.11-1.04h-2.53v2.06h2.53c.68,0,1.11-.43,1.11-1.02m.18,3.87c0-.6-.43-1.11-1.22-1.11h-2.6v2.21h2.6c.77,0,1.22-.41,1.22-1.1"/>
    <path class="cls-3" d="m121,34.97l-.58-1.61h-4.07l-.6,1.61h-2.3l3.67-9.49h2.53l3.66,9.49h-2.3Zm-2.62-7.47l-1.48,4.08h2.96l-1.48-4.08Z"/>
    <polygon class="cls-3" points="124.18 34.97 124.18 25.48 126.2 25.48 126.2 33.19 130.22 33.19 130.22 34.97 124.18 34.97"/>
    <polygon class="cls-3" points="85.08 47.34 85.08 40.7 82.4 47.34 81.52 47.34 78.84 40.7 78.84 47.34 76.82 47.34 76.82 37.85 79.65 37.85 81.96 43.59 84.26 37.85 87.11 37.85 87.11 47.34 85.08 47.34"/>
    <path class="cls-3" d="m95.54,47.34l-.58-1.61h-4.07l-.6,1.61h-2.3l3.67-9.49h2.53l3.66,9.49h-2.3Zm-2.62-7.47l-1.48,4.08h2.96l-1.48-4.08Z"/>
    <polygon class="cls-3" points="105.27 47.34 100.74 41.15 100.74 47.34 98.72 47.34 98.72 37.85 100.8 37.85 105.2 43.81 105.2 37.85 107.22 37.85 107.22 47.34 105.27 47.34"/>
    <path class="cls-3" d="m108.64,42.6c0-3,2.28-4.91,5.05-4.91,1.98,0,3.22,1,3.93,2.12l-1.68.91c-.43-.67-1.24-1.24-2.25-1.24-1.72,0-2.97,1.32-2.97,3.12s1.25,3.12,2.97,3.12c.84,0,1.64-.37,2.02-.73v-1.14h-2.51v-1.76h4.53v3.64c-.97,1.08-2.32,1.79-4.04,1.79-2.78,0-5.05-1.93-5.05-4.92"/>
    <path class="cls-3" d="m124.71,47.34l-1.86-3.37h-1.48v3.37h-2.02v-9.49h4.44c1.98,0,3.19,1.29,3.19,3.06s-1.05,2.58-2.08,2.82l2.13,3.61h-2.32Zm.2-6.43c0-.8-.61-1.28-1.42-1.28h-2.12v2.56h2.12c.81,0,1.42-.48,1.42-1.28"/>
    <path class="cls-3" d="m128.04,42.6c0-2.86,2.09-4.91,4.95-4.91s4.97,2.05,4.97,4.91-2.09,4.91-4.97,4.91-4.95-2.05-4.95-4.91m7.84,0c0-1.78-1.14-3.12-2.89-3.12s-2.88,1.34-2.88,3.12,1.12,3.12,2.88,3.12,2.89-1.35,2.89-3.12"/>
    <polygon class="cls-3" points="141.76 47.34 138.09 37.85 140.39 37.85 143.03 45.15 145.64 37.85 147.95 37.85 144.29 47.34 141.76 47.34"/>
    <polygon class="cls-3" points="148.83 47.34 148.83 37.85 155.55 37.85 155.55 39.63 150.85 39.63 150.85 41.64 155.45 41.64 155.45 43.41 150.85 43.41 150.85 45.56 155.55 45.56 155.55 47.34 148.83 47.34"/>
    <path class="cls-3" d="m83.37,59.72l-.58-1.61h-4.07l-.6,1.61h-2.3l3.67-9.49h2.53l3.66,9.49h-2.31Zm-2.62-7.47l-1.48,4.08h2.96l-1.48-4.08Z"/>
    <polygon class="cls-3" points="86.56 59.72 86.56 50.22 88.58 50.22 88.58 57.94 92.59 57.94 92.59 59.72 86.56 59.72"/>
    <polygon class="cls-3" points="94 59.72 94 50.22 96.02 50.22 96.02 57.94 100.03 57.94 100.03 59.72 94 59.72"/>
    <rect class="cls-3" x="101.44" y="50.22" width="2.02" height="9.49"/>
    <path class="cls-3" d="m111.89,59.72l-.58-1.61h-4.07l-.6,1.61h-2.3l3.67-9.49h2.53l3.66,9.49h-2.3Zm-2.62-7.47l-1.48,4.08h2.96l-1.48-4.08Z"/>
    <polygon class="cls-3" points="121.62 59.72 117.1 53.53 117.1 59.72 115.08 59.72 115.08 50.22 117.15 50.22 121.55 56.19 121.55 50.22 123.57 50.22 123.57 59.72 121.62 59.72"/>
    <path class="cls-3" d="m124.99,54.98c0-2.92,2.21-4.91,5.05-4.91,2.09,0,3.3,1.14,3.97,2.32l-1.74.85c-.4-.77-1.25-1.38-2.23-1.38-1.72,0-2.97,1.32-2.97,3.12s1.25,3.12,2.97,3.12c.98,0,1.84-.6,2.23-1.38l1.74.84c-.68,1.18-1.88,2.33-3.97,2.33-2.85,0-5.05-1.99-5.05-4.91"/>
    <polygon class="cls-3" points="135.23 59.72 135.23 50.22 141.94 50.22 141.94 52 137.25 52 137.25 54.01 141.84 54.01 141.84 55.79 137.25 55.79 137.25 57.94 141.94 57.94 141.94 59.72 135.23 59.72"/>
  </g>
</svg>