<svg width="548" height="2" viewBox="0 0 548 2" fill="none" xmlns="http://www.w3.org/2000/svg">
<g clip-path="url(#clip0_415_3504)">
<path d="M0.141602 0.749893C0.890208 0.0198926 2.39754 0.0198926 3.14614 0.749893C3.89475 1.47989 5.40208 1.47989 6.1608 0.749893C6.90941 0.0198926 8.41674 0.0198926 9.16534 0.749893C9.91395 1.47989 11.4213 1.47989 12.18 0.749893C12.9286 0.0198926 14.4359 0.0198926 15.1845 0.749893C15.9331 1.47989 17.4405 1.47989 18.1891 0.749893C18.9377 0.0198926 20.445 0.0198926 21.1936 0.749893C21.9422 1.47989 23.4496 1.47989 24.2083 0.749893C24.9569 0.0198926 26.4642 0.0198926 27.2128 0.749893C27.9614 1.47989 29.4688 1.47989 30.2174 0.749893C30.966 0.0198926 32.4733 0.0198926 33.2219 0.749893C33.9705 1.47989 35.4778 1.47989 36.2264 0.749893C36.9751 0.0198926 38.4824 0.0198926 39.2411 0.749893C39.9897 1.47989 41.497 1.47989 42.2456 0.749893C42.9942 0.0198926 44.5016 0.0198926 45.2502 0.749893C45.9988 1.47989 47.5061 1.47989 48.2547 0.749893C49.0033 0.0198926 50.5107 0.0198926 51.2593 0.749893C52.0079 1.47989 53.5152 1.47989 54.2638 0.749893C55.0124 0.0198926 56.5197 0.0198926 57.2785 0.749893C58.0271 1.47989 59.5344 1.47989 60.283 0.749893C61.0316 0.0198926 62.5389 0.0198926 63.2876 0.749893C64.0362 1.47989 65.5435 1.47989 66.2921 0.749893C67.0407 0.0198926 68.548 0.0198926 69.2966 0.749893C70.0452 1.47989 71.5526 1.47989 72.3113 0.749893C73.0599 0.0198926 74.5672 0.0198926 75.3158 0.749893C76.0644 1.47989 77.5718 1.47989 78.3204 0.749893C79.069 0.0198926 80.5763 0.0198926 81.3249 0.749893C82.0735 1.47989 83.5808 1.47989 84.3295 0.749893C85.0781 0.0198926 86.5854 0.0198926 87.334 0.749893C88.0826 1.47989 89.5899 1.47989 90.3487 0.749893C91.0973 0.0198926 92.6046 0.0198926 93.3532 0.749893C94.1018 1.47989 95.6091 1.47989 96.3577 0.749893C97.1063 0.0198926 98.6137 0.0198926 99.3623 0.749893C100.111 1.47989 101.618 1.47989 102.377 0.749893C103.126 0.0198926 104.633 0.0198926 105.392 0.749893C106.14 1.47989 107.648 1.47989 108.406 0.749893C109.155 0.0198926 110.662 0.0198926 111.411 0.749893C112.159 1.47989 113.667 1.47989 114.415 0.749893C115.164 0.0198926 116.671 0.0198926 117.42 0.749893C118.168 1.47989 119.676 1.47989 120.435 0.749893C121.183 0.0198926 122.69 0.0198926 123.449 0.749893C124.198 1.47989 125.705 1.47989 126.454 0.749893C127.202 0.0198926 128.71 0.0198926 129.468 0.749893C130.217 1.47989 131.724 1.47989 132.473 0.749893C133.222 0.0198926 134.729 0.0198926 135.488 0.749893C136.236 1.47989 137.744 1.47989 138.492 0.749893C139.241 0.0198926 140.748 0.0198926 141.507 0.749893C142.255 1.47989 143.763 1.47989 144.511 0.749893C145.26 0.0198926 146.767 0.0198926 147.526 0.749893C148.275 1.47989 149.782 1.47989 150.531 0.749893C151.279 0.0198926 152.786 0.0198926 153.545 0.749893C154.304 1.47989 155.801 1.47989 156.55 0.749893C157.298 0.0198926 158.806 0.0198926 159.554 0.749893C160.303 1.47989 161.81 1.47989 162.569 0.749893C163.318 0.0198926 164.825 0.0198926 165.584 0.749893C166.332 1.47989 167.84 1.47989 168.588 0.749893C169.337 0.0198926 170.844 0.0198926 171.603 0.749893C172.351 1.47989 173.859 1.47989 174.607 0.749893C175.356 0.0198926 176.863 0.0198926 177.612 0.749893C178.36 1.47989 179.868 1.47989 180.616 0.749893C181.365 0.0198926 182.872 0.0198926 183.631 0.749893C184.38 1.47989 185.887 1.47989 186.636 0.749893C187.384 0.0198926 188.892 0.0198926 189.65 0.749893C190.399 1.47989 191.906 1.47989 192.665 0.749893C193.414 0.0198926 194.921 0.0198926 195.669 0.749893C196.418 1.47989 197.925 1.47989 198.674 0.749893C199.423 0.0198926 200.93 0.0198926 201.689 0.749893C202.447 1.47989 203.945 1.47989 204.693 0.749893C205.442 0.0198926 206.949 0.0198926 207.708 0.749893C208.456 1.47989 209.964 1.47989 210.712 0.749893C211.461 0.0198926 212.968 0.0198926 213.727 0.749893C214.476 1.47989 215.983 1.47989 216.732 0.749893C217.48 0.0198926 218.988 0.0198926 219.746 0.749893C220.505 1.47989 222.002 1.47989 222.751 0.749893C223.499 0.0198926 225.007 0.0198926 225.755 0.749893C226.504 1.47989 228.011 1.47989 228.76 0.749893C229.508 0.0198926 231.016 0.0198926 231.775 0.749893C232.523 1.47989 234.03 1.47989 234.779 0.749893C235.528 0.0198926 237.035 0.0198926 237.794 0.749893C238.552 1.47989 240.05 1.47989 240.808 0.749893C241.557 0.0198926 243.064 0.0198926 243.813 0.749893C244.562 1.47989 246.069 1.47989 246.817 0.749893C247.566 0.0198926 249.073 0.0198926 249.832 0.749893C250.581 1.47989 252.088 1.47989 252.837 0.749893C253.585 0.0198926 255.093 0.0198926 255.851 0.749893C256.6 1.47989 258.107 1.47989 258.866 0.749893C259.615 0.0198926 261.122 0.0198926 261.871 0.749893C262.619 1.47989 264.126 1.47989 264.875 0.749893C265.624 0.0198926 267.131 0.0198926 267.89 0.749893C268.638 1.47989 270.146 1.47989 270.894 0.749893C271.643 0.0198926 273.15 0.0198926 273.909 0.749893C274.658 1.47989 276.165 1.47989 276.913 0.749893C277.662 0.0198926 279.169 0.0198926 279.918 0.749893C280.667 1.47989 282.174 1.47989 282.923 0.749893C283.671 0.0198926 285.178 0.0198926 285.937 0.749893C286.686 1.47989 288.193 1.47989 288.942 0.749893C289.69 0.0198926 291.198 0.0198926 291.956 0.749893C292.705 1.47989 294.212 1.47989 294.961 0.749893C295.71 0.0198926 297.217 0.0198926 297.965 0.749893C298.714 1.47989 300.221 1.47989 300.97 0.749893C301.719 0.0198926 303.226 0.0198926 303.985 0.749893C304.733 1.47989 306.241 1.47989 306.989 0.749893C307.738 0.0198926 309.245 0.0198926 309.994 0.749893C310.742 1.47989 312.25 1.47989 313.008 0.749893C313.757 0.0198926 315.264 0.0198926 316.013 0.749893C316.762 1.47989 318.269 1.47989 319.018 0.749893C319.766 0.0198926 321.273 0.0198926 322.032 0.749893C322.781 1.47989 324.288 1.47989 325.037 0.749893C325.785 0.0198926 327.293 0.0198926 328.041 0.749893C328.79 1.47989 330.297 1.47989 331.056 0.749893C331.805 0.0198926 333.312 0.0198926 334.06 0.749893C334.809 1.47989 336.316 1.47989 337.065 0.749893C337.814 0.0198926 339.321 0.0198926 340.08 0.749893C340.828 1.47989 342.336 1.47989 343.084 0.749893C343.833 0.0198926 345.34 0.0198926 346.089 0.749893C346.837 1.47989 348.345 1.47989 349.103 0.749893C349.852 0.0198926 351.359 0.0198926 352.108 0.749893C352.857 1.47989 354.364 1.47989 355.112 0.749893C355.861 0.0198926 357.368 0.0198926 358.127 0.749893C358.876 1.47989 360.383 1.47989 361.132 0.749893C361.88 0.0198926 363.388 0.0198926 364.136 0.749893C364.885 1.47989 366.392 1.47989 367.151 0.749893C367.899 0.0198926 369.407 0.0198926 370.155 0.749893C370.904 1.47989 372.411 1.47989 373.16 0.749893C373.909 0.0198926 375.416 0.0198926 376.175 0.749893C376.923 1.47989 378.431 1.47989 379.179 0.749893C379.928 0.0198926 381.435 0.0198926 382.184 0.749893C382.932 1.47989 384.44 1.47989 385.198 0.749893C385.947 0.0198926 387.454 0.0198926 388.203 0.749893C388.951 1.47989 390.459 1.47989 391.207 0.749893C391.956 0.0198926 393.463 0.0198926 394.212 0.749893C394.961 1.47989 396.468 1.47989 397.227 0.749893C397.975 0.0198926 399.483 0.0198926 400.231 0.749893C400.98 1.47989 402.487 1.47989 403.246 0.749893C403.994 0.0198926 405.502 0.0198926 406.25 0.749893C406.999 1.47989 408.506 1.47989 409.255 0.749893C410.003 0.0198926 411.511 0.0198926 412.259 0.749893C413.008 1.47989 414.515 1.47989 415.274 0.749893C416.023 0.0198926 417.53 0.0198926 418.279 0.749893C419.027 1.47989 420.535 1.47989 421.293 0.749893C422.042 0.0198926 423.549 0.0198926 424.298 0.749893C425.046 1.47989 426.554 1.47989 427.302 0.749893C428.051 0.0198926 429.558 0.0198926 430.307 0.749893C431.056 1.47989 432.563 1.47989 433.322 0.749893C434.08 0.0198926 435.578 0.0198926 436.326 0.749893C437.075 1.47989 438.582 1.47989 439.341 0.749893C440.089 0.0198926 441.597 0.0198926 442.345 0.749893C443.094 1.47989 444.601 1.47989 445.35 0.749893C446.098 0.0198926 447.606 0.0198926 448.354 0.749893C449.103 1.47989 450.61 1.47989 451.369 0.749893C452.128 0.0198926 453.625 0.0198926 454.374 0.749893C455.122 1.47989 456.63 1.47989 457.388 0.749893C458.137 0.0198926 459.644 0.0198926 460.393 0.749893C461.141 1.47989 462.649 1.47989 463.397 0.749893C464.146 0.0198926 465.653 0.0198926 466.402 0.749893C467.15 1.47989 468.658 1.47989 469.417 0.749893C470.175 0.0198926 471.672 0.0198926 472.421 0.749893C473.17 1.47989 474.677 1.47989 475.436 0.749893C476.184 0.0198926 477.692 0.0198926 478.44 0.749893C479.189 1.47989 480.696 1.47989 481.445 0.749893C482.193 0.0198926 483.701 0.0198926 484.459 0.749893C485.208 1.47989 486.715 1.47989 487.464 0.749893C488.213 0.0198926 489.72 0.0198926 490.469 0.749893C491.217 1.47989 492.724 1.47989 493.483 0.749893C494.232 0.0198926 495.739 0.0198926 496.488 0.749893C497.236 1.47989 498.744 1.47989 499.492 0.749893C500.241 0.0198926 501.748 0.0198926 502.507 0.749893C503.256 1.47989 504.763 1.47989 505.512 0.749893C506.26 0.0198926 507.767 0.0198926 508.516 0.749893C509.265 1.47989 510.772 1.47989 511.521 0.749893C512.269 0.0198926 513.777 0.0198926 514.535 0.749893C515.284 1.47989 516.791 1.47989 517.54 0.749893C518.288 0.0198926 519.796 0.0198926 520.544 0.749893C521.293 1.47989 522.8 1.47989 523.559 0.749893C524.308 0.0198926 525.815 0.0198926 526.564 0.749893C527.312 1.47989 528.819 1.47989 529.568 0.749893C530.317 0.0198926 531.824 0.0198926 532.583 0.749893C533.331 1.47989 534.839 1.47989 535.587 0.749893C536.336 0.0198926 537.843 0.0198926 538.592 0.749893C539.34 1.47989 540.848 1.47989 541.606 0.749893C542.355 0.0198926 543.862 0.0198926 544.611 0.749893C545.36 1.47989 546.867 1.47989 547.616 0.749893" stroke="#0D3E3C" stroke-width="0.4"/>
</g>
<defs>
<clipPath id="clip0_415_3504">
<rect width="548" height="1.5" fill="white"/>
</clipPath>
</defs>
</svg>
