<svg width="43" height="3" viewBox="0 0 43 3" fill="none" xmlns="http://www.w3.org/2000/svg">
<path d="M0.639893 1.01356C1.69989 0.0335644 3.79989 0.0335644 4.85989 1.01356C5.90989 1.99356 8.01989 1.99356 9.07989 1.01356C10.1299 0.0335644 12.2399 0.0335644 13.2999 1.01356C14.3499 1.99356 16.4599 1.99356 17.5199 1.01356C18.5699 0.0335644 20.6799 0.0335644 21.7299 1.01356C22.7799 1.99356 24.8899 1.99356 25.9499 1.01356C26.9999 0.0335644 29.1099 0.0335644 30.1699 1.01356C31.2299 1.99356 33.3299 1.99356 34.3899 1.01356C35.4499 0.0335644 37.5499 0.0335644 38.6099 1.01356C39.6599 1.99356 41.7699 1.99356 42.8299 1.01356" stroke="#0D3E3C" stroke-width="0.53"/>
</svg>
